# AST/ASF file generated using VICON BodyLanguage
# -----------------------------------------------
:version 1.10
:name VICON
:units
  mass 1.0
  length 0.45
  angle deg
:documentation
   .ast/.asf automatically generated from VICON data using
   VICON BodyBuilder and BodyLanguage model FoxedUp or BRILLIANT.MOD
:root
   order TX TY TZ RX RY RZ
   axis XYZ
   position 0 0 0  
   orientation 0 0 0 
:bonedata
  begin
     id 1 
     name lhipjoint
     direction 0.578396 -0.714046 0.394458 
     length 2.21935 
     axis 0 0 0  XYZ
  end
  begin
     id 2 
     name lfemur
     direction 0.34202 -0.939693 0  
     length 6.39105  
     axis 0 0 20  XYZ
    dof rx ry rz
    limits (-160.0 20.0)
           (-70.0 70.0)
           (-60.0 70.0)
  end
  begin
     id 3 
     name ltibia
     direction 0.34202 -0.939693 0   
     length 6.99037   
     axis 0 0 20   XYZ
    dof rx
    limits (-10.0 170.0)
  end
  begin
     id 4 
     name lfoot
     direction 0.0582372 -0.160005 0.985397   
     length 2.06111   
     axis -90 7.62852e-016 20   XYZ
    dof rx rz
    limits (-45.0 90.0)
           (-70.0 20.0)
  end
  begin
     id 5 
     name ltoes
     direction 1.53556e-011 -4.21875e-011 1   
     length 1.04074   
     axis -90 7.62852e-016 20   XYZ
    dof rx
    limits (-90.0 20.0)
  end
  begin
     id 6 
     name rhipjoint
     direction -0.558179 -0.726269 0.40121   
     length 2.182  
     axis 0 0 0  XYZ 
  end
  begin
     id 7 
     name rfemur
     direction -0.34202 -0.939693 0   
     length 6.51172   
     axis 0 0 -20   XYZ
    dof rx ry rz
    limits (-160.0 20.0)
           (-70.0 70.0)
           (-70.0 60.0)
  end
  begin
     id 8 
     name rtibia
     direction -0.34202 -0.939693 0   
     length 7.02607   
     axis 0 0 -20   XYZ
    dof rx
    limits (-10.0 170.0)
 end
 begin
     id 9 
     name rfoot
     direction -0.0788856 -0.216737 0.973038   
     length 1.96734  
     axis -90 -7.62852e-016 -20   XYZ
    dof rx rz
    limits (-45.0 90.0)
           (-20.0 70.0)
  end
  begin
     id 10 
     name rtoes
     direction -1.53567e-011 -4.21783e-011 1   
     length 0.990825   
     axis -90 -7.62852e-016 -20   XYZ
    dof rx
    limits (-90.0 20.0)
  end
  begin
     id 11 
     name lowerback
     direction 0.00668177 0.999323 -0.0361741   
     length 1.7655   
     axis 0 0 0   XYZ
    dof rx ry rz
    limits (-20.0 45.0)
           (-30.0 30.0)
           (-30.0 30.0)
  end
  begin
     id 12 
     name upperback
     direction -0.00222086 0.99851 0.0545167   
     length 1.74912   
     axis 0 0 0   XYZ
    dof rx ry rz
    limits (-20.0 45.0)
           (-30.0 30.0)
           (-30.0 30.0)
  end
  begin
     id 13 
     name thorax
     direction -0.00733971 0.997496 0.0703443   
     length 1.75715   
     axis 0 0 0   XYZ
    dof rx ry rz
    limits (-20.0 45.0)
           (-30.0 30.0)
           (-30.0 30.0)
  end
  begin
     id 14 
     name lowerneck
     direction 0.0279797 0.994795 0.0979765   
     length 1.46939   
     axis 0 0 0   XYZ
    dof rx ry rz
    limits (-20.0 45.0)
           (-30.0 30.0)
           (-30.0 30.0)
  end
  begin
     id 15 
     name upperneck
     direction 0.00339187 0.976776 -0.214238   
     length 1.48018   
     axis 0 0 0   XYZ
    dof rx ry rz
    limits (-20.0 45.0)
           (-30.0 30.0)
           (-30.0 30.0)
  end
  begin
     id 16
     name head
     direction -0.00263506 0.996603 -0.0823096  
     length 1.4976  
     axis 0 0 0   XYZ
    dof rx ry rz
    limits (-20.0 45.0)
           (-30.0 30.0)
           (-30.0 30.0)
  end
  begin
     id 17 
     name lclavicle
     direction 0.894044 0.44508 -0.0508781  
     length 3.03024  
     axis 0 0 0   XYZ
    dof ry rz
    limits (-20.0 10.0)
           (0.0 20.0)
  end
  begin
     id 18 
     name lhumerus
     direction 1 -4.48961e-011 -2.39475e-018   
     length 4.4661   
     axis 180 -30 -90   XYZ
    dof rx ry rz
    limits (-60.0 90.0)
           (-90.0 90.0)
           (-90.0 90.0)
  end
  begin
     id 19
     name lradius
     direction 1 -4.48961e-011 9.29328e-028   
     length 3.41414   
     axis 180 -30 -90   XYZ
    dof rx
    limits (-10.0 170.0)
  end
  begin
     id 20
     name lwrist
     direction 1 -4.48985e-011 1.53461e-026   
     length 1.70707   
     axis -1.09697e-014 90 90   XYZ
    dof ry
    limits (-180.0 0.0)
 end
  begin
     id 21 
     name lhand
     direction 1 -4.48966e-011 3.06923e-026   
     length 0.328298   
     axis -1.95843e-014 90 90   XYZ
    dof rx rz
    limits (-90.0 90.0)
           (-45.0 45.0)
  end
  begin
     id 22 
     name lfingers
     direction 1 -4.48893e-011 6.13845e-026   
     length 0.264682   
     axis -3.91686e-014 90 90   XYZ
    dof rx
    limits (0.0 90.0)
  end
  begin
     id 23
     name lthumb
     direction 0.707107 -6.34876e-011 0.707107   
     length 0.380032   
     axis -90 45 2.85299e-015   XYZ
    dof rx rz
    limits (-45.0 45.0)
           (-45.0 45.0)
  end
  begin
     id 24 
     name rclavicle
     direction -0.936955 0.347862 -0.0332887   
     length 3.26927  
     axis 0 0 0   XYZ 
    dof ry rz
    limits (-10.0 20.0)
           (-20.0 0.0)
  end
  begin
     id 25 
     name rhumerus
     direction -1 -4.4896e-011 1.78637e-018  
     length 4.40431   
     axis 180 30 90   XYZ
    dof rx ry rz
    limits (-90.0 60.0)
           (-90.0 90.0)
           (-90.0 90.0)
  end
  begin
     id 26 
     name rradius
     direction -1 -4.48955e-011 9.34036e-027   
     length 3.04688   
     axis 180 30 90   XYZ
    dof rx
    limits (-10.0 170.0)
  end
  begin
     id 27 
     name rwrist
     direction -1 -4.49011e-011 1.53461e-026   
     length 1.52344   
     axis -1.09697e-014 -90 -90   XYZ
    dof ry
    limits (-180.0 0.0)
  end
  begin
     id 28
     name rhand
     direction -1 -4.48834e-011 3.06923e-026   
     length 0.500489   
     axis -1.95843e-014 -90 -90   XYZ
    dof rx rz
    limits (-90.0 90.0)
           (-45.0 45.0)
  end
  begin
     id 29
     name rfingers
     direction -1 -4.48967e-011 6.13845e-026   
     length 0.403507   
     axis -3.91686e-014 -90 -90   XYZ
    dof rx
    limits (0.0 90.0)
  end
  begin
     id 30
     name rthumb
     direction -0.707107 -6.34826e-011 0.707107   
     length 0.579358   
     axis -90 -45 -2.85299e-015   XYZ
    dof rx rz
    limits (-45.0 45.0)
           (-45.0 45.0)
  end
:hierarchy
  begin
    root lhipjoint rhipjoint lowerback
    lhipjoint lfemur
    lfemur ltibia
    ltibia lfoot
    lfoot ltoes
    rhipjoint rfemur
    rfemur rtibia
    rtibia rfoot
    rfoot rtoes
    lowerback upperback
    upperback thorax
    thorax lowerneck lclavicle rclavicle
    lowerneck upperneck
    upperneck head
    lclavicle lhumerus
    lhumerus lradius
    lradius lwrist
    lwrist lhand lthumb
    lhand lfingers
    rclavicle rhumerus
    rhumerus rradius
    rradius rwrist
    rwrist rhand rthumb
    rhand rfingers
  end

#!OML:ASF H:\IndianDance\Patient Classification 1\Patient 1\Session 1\dancer.ASF
:FULLY-SPECIFIED
:DEGREES
1239
root -7.18973 13.4085 -6.55957 -162.283 -37.8175 -188.032
lowerback 0.838556 2.84724 -0.393607
upperback -9.39037 3.48011 3.7651
thorax -10.7519 1.65471 3.96465
lowerneck -15.9896 0.887987 3.76068
upperneck 22.9482 1.96578 -9.00614
head 10.0771 -0.0455852 -3.60484
rclavicle -5.96354e-014 -5.88403e-014
rhumerus 30.8466 48.5189 -64.8568
rradius 60.3439
rwrist -94.9191
rhand -27.8894 -16.4171
rfingers 7.12502
rthumb -1.2791 -46.393
lclavicle -5.96354e-014 -5.88403e-014
lhumerus 55.2859 18.2136 -1.85633
lradius 75.1923
lwrist -6.41149
lhand -57.9596 -49.6148
lfingers 7.12502
lthumb -30.2073 -382.065
rfemur -63.3358 -8.39892 45.72
rtibia 62.7953
rfoot -4.94691 -4.87941
rtoes 23.3233
lfemur 179.051 162.266 133.1
ltibia 35.7807
lfoot -18.4613 -6.80269
ltoes 15.2975
1240
root -7.39163 13.3491 -6.60999 -162.121 -39.0208 -188.071
lowerback 0.625268 2.89183 -0.0379458
upperback -9.49109 3.55047 3.84544
thorax -10.7239 1.65577 3.85358
lowerneck -16.1131 0.73826 3.62221
upperneck 23.1441 1.74199 -8.75267
head 10.1503 -0.134836 -3.52655
rclavicle -8.94531e-014 4.77083e-014
rhumerus 32.4371 47.8094 -65.2173
rradius 58.2401
rwrist -94.5
rhand -28.6757 -17.7821
rfingers 7.12502
rthumb -2.03853 -47.7521
lclavicle -8.94531e-014 4.77083e-014
lhumerus 55.8848 17.3024 -1.2116
lradius 75.9043
lwrist -4.95424
lhand -56.5761 -43.8019
lfingers 7.12502
lthumb -28.8867 -376.019
rfemur -63.3963 -7.85774 44.5841
rtibia 63.9663
rfoot -7.21187 -6.1178
rtoes 24.7276
lfemur 179.959 162.58 133.453
ltibia 36.0488
lfoot -17.4402 -7.73168
ltoes 15.4785
1241
root -7.59703 13.296 -6.65942 -162.107 -40.1754 -187.992
lowerback 0.493579 2.93839 0.351426
upperback -9.57517 3.63049 3.97957
thorax -10.7291 1.66138 3.77883
lowerneck -16.2227 0.620782 3.53414
upperneck 23.3324 1.55389 -8.51871
head 10.2223 -0.204698 -3.45897
rclavicle 6.71892e-014 -6.36111e-015
rhumerus 34.3684 47.7607 -64.504
rradius 56.498
rwrist -92.279
rhand -29.0607 -19.219
rfingers 7.12502
rthumb -2.41031 -49.1852
lclavicle 6.71892e-014 -6.36111e-015
lhumerus 56.3797 16.1945 -0.608201
lradius 76.8166
lwrist -3.25937
lhand -54.8322 -37.68
lfingers 7.12502
lthumb -27.2196 -369.624
rfemur -63.4384 -7.23176 43.4166
rtibia 65.2733
rfoot -9.28199 -7.43938
rtoes 25.199
lfemur 180.767 162.887 133.934
ltibia 36.5731
lfoot -16.1961 -8.67967
ltoes 15.0806
1242
root -7.80461 13.2508 -6.70788 -162.26 -41.2693 -187.782
lowerback 0.437047 2.98083 0.78063
upperback -9.62907 3.71316 4.15579
thorax -10.746 1.66732 3.72484
lowerneck -16.3243 0.534967 3.49949
upperneck 23.5063 1.39435 -8.28053
head 10.2907 -0.254821 -3.39467
rclavicle 8.5875e-014 -1.59028e-014
rhumerus 36.6746 48.2735 -62.7044
rradius 55.2318
rwrist -88.9504
rhand -29.0807 -20.8527
rfingers 7.12502
rthumb -2.4296 -50.8186
lclavicle 8.5875e-014 -1.59028e-014
lhumerus 56.7685 14.903 -0.0865868
lradius 77.9511
lwrist -1.36275
lhand -52.6963 -31.6404
lfingers 7.12502
lthumb -25.1748 -363.281
rfemur -63.4406 -6.59322 42.3072
rtibia 66.6414
rfoot -10.9829 -8.86372
rtoes 24.9647
lfemur 181.438 163.176 134.555
ltibia 37.3927
lfoot -14.6513 -9.70239
ltoes 14.2765
1243
root -8.01294 13.2152 -6.7556 -162.595 -42.2982 -187.435
lowerback 0.464134 3.01225 1.22739
upperback -9.64367 3.78991 4.3759
thorax -10.7709 1.67191 3.70636
lowerneck -16.4413 0.482493 3.51068
upperneck 23.6934 1.26427 -8.02373
head 10.3696 -0.284796 -3.32816
rclavicle -7.39479e-014 1.27222e-014
rhumerus 39.291 49.1518 -59.9493
rradius 54.5463
rwrist -85.3028
rhand -28.6967 -22.8174
rfingers 7.12502
rthumb -2.05882 -52.7872
lclavicle -7.39479e-014 1.27222e-014
lhumerus 57.0498 13.433 0.340159
lradius 79.3186
lwrist 0.685688
lhand -50.2173 -25.9078
lfingers 7.12502
lthumb -22.7976 -357.235
rfemur -63.3678 -5.99656 41.31
rtibia 68.0143
rfoot -12.3464 -10.2237
rtoes 24.365
lfemur 181.943 163.425 135.33
ltibia 38.535
lfoot -12.696 -10.8729
ltoes 13.1886
1244
root -8.22073 13.1897 -6.80344 -163.105 -43.2587 -186.968
lowerback 0.573369 3.02823 1.64208
upperback -9.61551 3.85322 4.64247
thorax -10.8028 1.67636 3.75463
lowerneck -16.5578 0.44821 3.55482
upperneck 23.8547 1.1435 -7.74231
head 10.4403 -0.302788 -3.25606
rclavicle -2.8625e-014 -2.54444e-014
rhumerus 42.0584 50.1703 -56.5096
rradius 54.52
rwrist -82.0102
rhand -27.9422 -24.8852
rfingers 7.12502
rthumb -1.33005 -54.8608
lclavicle -2.8625e-014 -2.54444e-014
lhumerus 57.2213 11.787 0.65709
lradius 80.9255
lwrist 2.87254
lhand -47.4631 -20.6388
lfingers 7.12502
lthumb -20.1524 -351.664
rfemur -63.1864 -5.46981 40.4408
rtibia 69.3543
rfoot -13.3877 -11.4127
rtoes 23.5537
lfemur 182.254 163.622 136.253
ltibia 40.0195
lfoot -10.252 -12.1982
ltoes 11.9123
1245
root -8.42598 13.1736 -6.85183 -163.757 -44.1521 -186.409
lowerback 0.75516 3.02413 1.98918
upperback -9.54273 3.89468 4.94465
thorax -10.8351 1.67958 3.87885
lowerneck -16.6982 0.431558 3.62161
upperneck 24.0057 1.03139 -7.42569
head 10.513 -0.309353 -3.1736
rclavicle -1.51076e-014 3.18055e-014
rhumerus 44.7846 51.1377 -52.7266
rradius 55.1701
rwrist -79.409
rhand -26.8625 -26.857
rfingers 7.12502
rthumb -0.287242 -56.8365
lclavicle -1.51076e-014 3.18055e-014
lhumerus 57.28 9.96784 0.840831
lradius 82.7678
lwrist 5.16548
lhand -44.5964 -15.9654
lfingers 7.12502
lthumb -17.3953 -346.724
rfemur -62.8778 -5.0146 39.6914
rtibia 70.6298
rfoot -14.1926 -12.422
rtoes 22.5726
lfemur 182.331 163.765 137.303
ltibia 41.8591
lfoot -7.25212 -13.6284
ltoes 10.7257
1246
root -8.62725 13.1656 -6.90147 -164.512 -44.9859 -185.801
lowerback 1.00743 2.99348 2.23627
upperback -9.43191 3.90325 5.26834
thorax -10.8747 1.67859 4.08336
lowerneck -16.8466 0.427164 3.68947
upperneck 24.1325 0.921912 -7.05884
head 10.5789 -0.30693 -3.07174
rclavicle 9.78021e-014 1.27222e-014
rhumerus 47.2917 51.9685 -48.8971
rradius 56.4204
rwrist -77.4437
rhand -25.3925 -28.4465
rfingers 7.12502
rthumb 1.13251 -58.4233
lclavicle 9.78021e-014 1.27222e-014
lhumerus 57.2204 7.9898 0.839268
lradius 84.8227
lwrist 7.55496
lhand -41.8043 -11.9342
lfingers 7.12502
lthumb -14.7066 -342.476
rfemur -62.4296 -4.6313 39.0259
rtibia 71.8136
rfoot -14.8708 -13.2533
rtoes 21.497
lfemur 182.148 163.857 138.449
ltibia 44.0624
lfoot -3.69954 -15.0156
ltoes 9.85816
1247
root -8.82333 13.1643 -6.9529 -165.322 -45.7689 -185.187
lowerback 1.30721 2.93283 2.36962
upperback -9.27708 3.87126 5.5904
thorax -10.8988 1.67037 4.35229
lowerneck -17.0193 0.432094 3.75014
upperneck 24.2259 0.810841 -6.63187
head 10.6377 -0.296736 -2.94589
rclavicle 1.70557e-013 3.81667e-014
rhumerus 49.4992 52.6251 -45.2028
rradius 58.1528
rwrist -75.8503
rhand -23.5222 -29.4197
rfingers 7.12502
rthumb 2.93878 -59.3791
lclavicle 1.70557e-013 3.81667e-014
lhumerus 57.0524 5.87961 0.609345
lradius 87.0526
lwrist 9.98112
lhand -39.2873 -8.55456
lfingers 7.12502
lthumb -12.2807 -338.935
rfemur -61.8458 -4.31325 38.4068
rtibia 72.8824
rfoot -15.493 -13.9064
rtoes 20.3541
lfemur 181.676 163.906 139.653
ltibia 46.6301
lfoot 0.277456 -16.216
ltoes 9.36988
1248
root -9.01333 13.1675 -7.00624 -166.142 -46.5113 -184.599
lowerback 1.64715 2.84097 2.38374
upperback -9.09172 3.79452 5.89712
thorax -10.9164 1.65231 4.67539
lowerneck -17.1986 0.447634 3.78821
upperneck 24.2823 0.704597 -6.1473
head 10.685 -0.277761 -2.79327
rclavicle 1.03368e-014 -7.31528e-014
rhumerus 51.4029 53.1481 -41.6723
rradius 60.2466
rwrist -74.2528
rhand -21.2429 -29.5389
rfingers 7.12502
rthumb 5.13983 -59.4565
lclavicle 1.03368e-014 -7.31528e-014
lhumerus 56.7668 3.64604 0.126284
lradius 89.4165
lwrist 12.3469
lhand -37.1674 -5.84328
lfingers 7.12502
lthumb -10.2361 -336.112
rfemur -61.1429 -4.06988 37.838
rtibia 73.811
rfoot -16.0102 -14.5042
rtoes 18.6371
lfemur 180.888 163.923 140.876
ltibia 49.5584
lfoot 4.3809 -17.1257
ltoes 9.00241
